<?xml version="1.0" encoding="utf-8"?>
<!-- Generator: Adobe Illustrator 15.0.2, SVG Export Plug-In . SVG Version: 6.00 Build 0)  -->
<!DOCTYPE svg PUBLIC "-//W3C//DTD SVG 1.1//EN" "http://www.w3.org/Graphics/SVG/1.1/DTD/svg11.dtd">
<svg version="1.1" id="Layer_1" xmlns="http://www.w3.org/2000/svg" xmlns:xlink="http://www.w3.org/1999/xlink" x="0px" y="0px"
	 width="500px" height="150px" viewBox="58.5 160.5 500 150" enable-background="new 58.5 160.5 500 150" xml:space="preserve">
<g>
	<rect x="86.712" y="165.266" fill="#2CACE3" width="40.58" height="15.118"/>
	<rect x="127.292" y="289.924" fill="#2CACE3" width="40.58" height="15.118"/>
	<rect x="208.718" y="289.924" fill="#2CACE3" width="40.58" height="15.118"/>
	<rect x="168.138" y="165.266" fill="#2CACE3" width="40.58" height="15.118"/>
	<polygon fill="#6BCBD8" points="86.712,304.777 71.859,289.924 126.497,235.021 71.859,180.384 86.712,165.266 156.468,235.021 	
		"/>
	<polygon fill="#6BCBD8" points="127.558,304.777 112.44,289.924 167.077,235.021 112.44,180.384 127.558,165.266 197.048,235.021 	
		"/>
	<polygon fill="#6BCBD8" points="168.138,304.777 153.02,289.924 207.922,235.021 153.02,180.384 168.138,165.266 237.894,235.021 	
		"/>
	<polygon fill="#6BCBD8" points="208.718,304.777 193.6,289.924 248.503,235.021 193.6,180.384 208.718,165.266 278.474,235.021 	
		"/>
	<polygon fill="#6BCBD8" points="249.298,304.777 234.18,289.924 289.083,235.021 234.18,180.384 249.298,165.266 319.054,235.021 	
		"/>
</g>
<text transform="matrix(1 0 0 1 322.0537 282.3848)" enable-background="new    "><tspan x="0" y="0" fill="#A7B6C0" font-family="'HelveticaNeue-BoldItalic'" font-size="128" letter-spacing="-8">F</tspan><tspan x="67.454" y="0" fill="#A7B6C0" font-family="'HelveticaNeue-BoldItalic'" font-size="128" letter-spacing="-12">LO</tspan></text>
</svg>
